<svg xmlns="http://www.w3.org/2000/svg" viewBox="60 8 180 196">
  <rect x="0" y="0" width="240" height="210" fill="none"/>
  <g fill="#F2622E">
    <path d="M122,120 C150,55 195,30 228,22 C205,70 165,95 122,120 Z"/>
    <path transform="scale(-1,1) translate(-240,0)" d="M122,120 C150,55 195,30 228,22 C205,70 165,95 122,120 Z"/>
    <path d="M120,122 C100,150 82,178 75,192 C95,175 112,145 120,122 Z"/>
    <path d="M120,122 C140,152 150,180 153,196 C133,178 122,148 120,122 Z"/>
    <circle cx="136" cy="94" r="11"/>
    <path d="M145,88 L165,93 L145,100 Z"/>
  </g>
</svg>
